<svg cache-id="7d3db2bd9a044084a674fdd4e1fc0a90" id="eIb4QAnukW11" xmlns="http://www.w3.org/2000/svg" xmlns:xlink="http://www.w3.org/1999/xlink" viewBox="0 0 1334 542" shape-rendering="geometricPrecision" text-rendering="geometricPrecision"><polygon id="eIb4QAnukW13" style="mix-blend-mode:screen" points="0,-63.20375 6.31554,-8.692595 60.110338,-19.531033 10.218758,3.320276 37.150232,51.132908 0,10.744638 -37.150232,51.132908 -10.218758,3.320276 -60.110338,-19.531033 -6.31554,-8.692595 0,-63.20375" transform="matrix(-1.12637 1.689555-1.523159-1.015439 124.321338 264.871404)" opacity="0.53" fill="#d2dbed" stroke-width="0" stroke-dashoffset="1.6"/><polygon id="eIb4QAnukW14" points="0,-46.111241 6.775877,-9.326195 43.854396,-14.249157 10.963599,3.562289 27.103507,37.304777 0,11.52781 -27.103507,37.304777 -10.963599,3.562289 -43.854396,-14.249157 -6.775877,-9.326195 0,-46.111241" transform="matrix(-.380158 0.924921-.924921-.380158 72.509315 445.9688)" fill="#eddad2" stroke-width="0"/><polygon id="eIb4QAnukW15" points="0,-133.4 23.523166,-32.37686 126.870939,-41.222867 38.061282,12.36686 78.410553,107.922867 0,40.02 -78.410553,107.922867 -38.061282,12.36686 -126.870939,-41.222867 -23.523166,-32.37686 0,-133.4" transform="matrix(.812323 0.583208-.583208 0.812323 947.85476 315.70437)" fill="#edd2e4" stroke-width="0"/><polygon id="eIb4QAnukW16" points="0,-133.4 16.466216,-22.663802 126.870939,-41.222867 26.642897,8.656802 78.410553,107.922867 0,28.014 -78.410553,107.922867 -26.642897,8.656802 -126.870939,-41.222867 -16.466216,-22.663802 0,-133.4" transform="translate(112.883803 92.064093)" fill="#ededd2" stroke-width="0"/><polygon id="eIb4QAnukW17" points="0,-133.4 22.73906,-31.297631 126.870939,-41.222867 36.792572,11.954631 78.410553,107.922867 0,38.685999 -78.410553,107.922867 -36.792572,11.954631 -126.870939,-41.222867 -22.73906,-31.297631 0,-133.4" transform="matrix(.942104 0 0 1.00278 579.482232 558.042051)" fill="#d3edd2" stroke-width="0"/><polygon id="eIb4QAnukW18" points="0,-94.47894 12.217332,-16.815715 89.854811,-29.195598 19.768059,6.423031 55.533328,76.435068 0,20.785367 -55.533328,76.435068 -21.596624,9.402425 -89.854811,-29.195598 -12.217332,-16.815715 0,-94.47894" transform="matrix(-.523 0.852333-.852333-.523 167.124909 201.681483)" fill="#d2edd6" stroke-width="0"/><polygon id="eIb4QAnukW19" points="0,-107.605502 13.914764,-19.152029 102.338914,-33.251929 22.514561,7.315425 63.248927,87.05468 0,23.673211 -63.248927,87.05468 -22.514561,7.315425 -102.338914,-33.251929 -13.914764,-19.152029 0,-107.605502" transform="matrix(-.301464 0.519977-.539732-.312918 420.531081 393.794131)" fill="#d2e9ed" stroke-width="0"/>
</svg>
