<?xml version="1.0" standalone="no"?>
<!DOCTYPE svg PUBLIC "-//W3C//DTD SVG 20010904//EN"
 "http://www.w3.org/TR/2001/REC-SVG-20010904/DTD/svg10.dtd">
<svg version="1.0" xmlns="http://www.w3.org/2000/svg"
 width="1334.000000pt" height="542.000000pt" viewBox="0 0 1334.000000 542.000000"
 preserveAspectRatio="xMidYMid meet">

<g transform="translate(0.000000,542.000000) scale(0.100000,-0.100000)"
fill="#000000" stroke="none">
<path d="M0 2710 l0 -2710 6670 0 6670 0 0 2710 0 2710 -6670 0 -6670 0 0
-2710z m5868 2285 c2 -10 -2 -21 -9 -26 -11 -7 -10 -11 5 -22 19 -14 19 -15
-3 -27 -21 -11 -23 -16 -17 -68 4 -32 9 -69 12 -84 5 -24 2 -28 -19 -28 -22 0
-25 5 -31 53 -3 28 -6 69 -6 90 0 26 -4 37 -15 37 -21 0 -19 12 5 33 11 9 20
23 20 31 0 16 29 37 45 32 6 -1 12 -11 13 -21z m2002 1 c0 -8 -5 -18 -11 -22
-14 -8 -33 11 -25 25 10 16 36 13 36 -3z m-1853 -17 c-3 -12 0 -22 9 -26 19
-7 18 -33 -2 -33 -14 0 -16 -10 -12 -62 3 -35 8 -71 12 -80 5 -11 1 -20 -14
-28 -12 -6 -25 -9 -28 -5 -4 4 -9 45 -11 91 -2 64 -6 84 -17 84 -8 0 -14 7
-14 15 0 8 7 15 15 15 8 0 15 7 15 15 0 13 26 34 44 35 4 0 6 -9 3 -21z
m-1533 -14 c39 -36 65 -102 68 -171 3 -58 2 -59 -24 -62 -27 -3 -27 -3 -21 47
l6 51 -35 0 c-55 0 -69 -30 -43 -92 11 -28 -41 -24 -56 4 -16 29 -16 137 0
168 15 28 61 80 71 80 4 0 19 -11 34 -25z m3252 -7 c4 -6 2 -14 -5 -16 -8 -3
-9 -15 -5 -38 8 -44 -15 -80 -56 -89 -47 -10 -45 -23 5 -23 51 1 64 -6 49 -28
-11 -18 -102 -26 -121 -11 -17 13 -16 37 2 57 12 13 12 22 4 46 -15 41 2 82
38 89 15 4 35 10 43 15 21 13 38 12 46 -2z m-1500 -62 c4 -60 19 -93 28 -65 3
8 7 39 8 69 2 41 7 55 18 55 26 0 25 -101 -2 -155 -28 -53 -44 -60 -59 -26
-16 33 -21 33 -38 -4 -10 -24 -16 -28 -26 -20 -19 15 -43 95 -47 150 -3 40 -1
45 20 48 20 3 22 0 22 -46 0 -28 3 -57 6 -66 12 -31 24 -4 24 53 0 61 5 74 28
69 9 -2 15 -23 18 -62z m255 45 c22 -18 24 -27 24 -108 l0 -88 -29 -3 c-101
-12 -130 89 -38 133 34 16 35 18 18 30 -18 14 -46 10 -46 -6 0 -15 -17 -10
-24 6 -7 19 27 55 53 55 10 0 29 -9 42 -19z m154 9 c3 -5 19 -7 35 -3 22 4 31
1 36 -11 9 -23 -15 -50 -32 -35 -25 20 -34 -2 -34 -82 0 -71 -2 -80 -17 -77
-15 3 -20 19 -27 85 -5 45 -6 93 -2 107 6 26 29 35 41 16z m265 -10 c35 -35
24 -72 -31 -100 -48 -25 -55 -36 -28 -50 18 -10 26 -8 50 9 24 18 29 19 29 6
0 -22 -45 -65 -68 -65 -77 0 -99 156 -28 205 28 20 52 19 76 -5z m368 -2 c18
-15 15 -63 -5 -80 -10 -8 -30 -19 -45 -26 -31 -13 -37 -36 -12 -46 25 -10 32
-7 54 16 l20 22 0 -21 c0 -43 -59 -75 -100 -53 -40 22 -52 96 -24 155 23 50
72 64 112 33z m209 7 c18 -6 25 -63 16 -135 -7 -58 -11 -65 -32 -68 -22 -3
-23 -1 -18 30 22 118 16 154 -20 132 -14 -9 -19 -27 -21 -88 -3 -68 -5 -76
-22 -76 -22 0 -23 3 -20 110 3 100 9 112 63 104 23 -3 47 -7 54 -9z m-2395
-26 c9 -11 19 -45 23 -77 3 -31 8 -67 11 -79 10 -48 -98 -40 -125 9 -20 35 -2
76 39 91 17 6 30 15 30 20 0 14 -32 20 -50 9 -21 -13 -30 -6 -30 20 0 39 70
44 102 7z m362 18 c11 -8 15 -19 10 -30 -7 -19 -20 -22 -29 -7 -9 15 -35 12
-35 -5 0 -8 14 -22 30 -30 85 -44 50 -150 -39 -119 -20 7 -27 17 -29 44 -3 35
-3 35 13 13 18 -25 65 -32 65 -10 0 8 -17 25 -37 38 -29 18 -39 32 -41 55 -5
54 48 83 92 51z m226 -12 c15 -16 24 -40 27 -72 5 -58 -12 -94 -49 -107 -81
-29 -139 96 -83 180 21 33 73 33 105 -1z m2180 -80 l0 -105 -26 0 -26 0 7 98
c8 106 9 112 31 112 11 0 14 -20 14 -105z m222 88 c12 -15 13 -115 2 -165 -4
-22 -11 -28 -31 -28 -20 0 -24 4 -18 18 4 9 10 47 12 85 5 55 3 67 -9 67 -30
0 -43 -31 -43 -102 0 -65 -1 -68 -24 -68 l-24 0 6 89 c4 48 9 95 13 104 7 20
99 20 116 0z m216 1 c42 -29 24 -83 -38 -108 -43 -17 -50 -30 -22 -44 21 -11
43 -5 60 16 11 14 12 13 12 -5 0 -59 -89 -79 -122 -29 -14 20 -8 107 9 136 27
47 65 59 101 34z m-3564 -9 c8 -9 13 -22 10 -30 -7 -18 -9 -18 -34 -3 -14 9
-22 10 -31 1 -8 -8 1 -18 33 -40 34 -23 44 -35 46 -61 4 -42 -12 -62 -51 -62
-38 0 -67 25 -67 58 l0 26 20 -22 c25 -27 63 -30 58 -5 -2 10 -13 22 -25 28
-40 20 -53 38 -53 71 0 49 59 74 94 39z m3791 -9 c22 -32 6 -69 -37 -86 -50
-20 -60 -30 -47 -46 17 -20 45 -17 69 8 17 19 20 19 20 4 0 -25 -45 -66 -74
-66 -31 0 -66 43 -66 82 0 36 26 99 47 116 28 20 71 15 88 -12z m138 12 c3
-10 7 -10 19 0 9 7 23 10 32 6 20 -8 21 -38 1 -54 -10 -9 -15 -9 -15 -1 0 17
-37 13 -44 -5 -3 -9 -6 -45 -6 -81 0 -61 -1 -64 -22 -61 -21 3 -23 7 -20 63 4
113 11 145 32 145 10 0 20 -6 23 -12z m161 -154 c8 -20 -19 -64 -38 -64 -21 0
-28 53 -8 68 22 17 39 15 46 -4z m-3416 -417 c2 -10 -3 -17 -12 -17 -18 0 -29
16 -21 31 9 14 29 6 33 -14z m1510 -9 c-3 -30 -1 -32 32 -32 32 -1 36 -5 49
-41 29 -86 -15 -169 -87 -163 l-37 3 -3 90 c-4 126 4 175 29 175 17 0 20 -6
17 -32z m1042 -92 c0 -97 -3 -128 -15 -140 -12 -12 -15 -48 -17 -183 -1 -129
-3 -153 -8 -103 -4 36 -8 113 -9 173 -1 105 -1 107 -24 107 -28 0 -52 24 -60
60 -14 60 35 157 75 147 15 -4 18 1 18 29 0 27 4 34 20 34 19 0 20 -7 20 -124z
m-1744 89 c-5 -18 -2 -25 9 -25 8 0 15 -7 15 -15 0 -8 -7 -15 -16 -15 -14 0
-16 -11 -12 -80 4 -61 1 -83 -9 -92 -23 -19 -33 8 -33 89 0 58 -3 74 -17 82
-17 9 -17 11 2 30 11 11 26 27 33 36 20 24 35 18 28 -10z m2297 18 c9 -9 -13
-34 -24 -27 -14 8 -11 34 4 34 8 0 17 -3 20 -7z m575 -16 c2 -10 -3 -17 -12
-17 -18 0 -29 16 -21 31 9 14 29 6 33 -14z m-1493 -6 c-3 -12 0 -21 10 -25 22
-8 19 -23 -6 -29 -20 -5 -21 -11 -17 -81 4 -55 1 -79 -8 -87 -25 -21 -34 2
-34 87 0 49 -4 84 -10 84 -5 0 -10 7 -10 15 0 8 6 15 14 15 7 0 16 9 19 20 3
12 14 20 27 20 16 0 20 -4 15 -19z m-3725 -58 c0 -60 9 -120 26 -175 4 -14 -1
-18 -24 -18 -35 0 -40 15 -49 163 l-6 97 26 0 c27 0 27 -1 27 -67z m128 28 c2
-18 0 -40 -3 -49 -6 -15 -8 -15 -15 3 -5 11 -9 35 -9 53 -1 44 23 38 27 -7z
m4742 4 c10 -12 10 -15 -3 -15 -12 0 -15 -8 -10 -35 7 -44 -16 -81 -57 -90
-47 -10 -45 -23 5 -23 52 1 61 -4 47 -28 -10 -18 -84 -26 -114 -12 -22 11 -23
41 -3 58 10 9 13 24 8 56 -7 53 14 84 58 84 15 0 31 5 34 10 9 14 21 12 35 -5z
m-3696 -5 c16 -6 26 -17 26 -29 0 -23 -16 -36 -25 -21 -8 12 -45 13 -45 1 0
-4 18 -20 40 -35 34 -22 40 -32 40 -61 0 -68 -92 -86 -114 -22 -13 36 -2 43
24 17 23 -23 43 -22 48 3 2 9 -9 22 -27 32 -30 15 -51 42 -51 65 0 11 44 60
54 60 3 0 16 -4 30 -10z m220 -3 c13 -10 16 -20 11 -36 -7 -22 -8 -22 -26 -5
-16 14 -22 15 -32 5 -9 -10 -7 -16 13 -29 44 -30 60 -51 60 -81 0 -35 -22 -54
-62 -54 -36 0 -58 24 -57 62 l0 26 16 -22 c17 -26 63 -32 63 -8 0 8 -13 21
-30 30 -51 26 -64 71 -30 105 23 23 49 26 74 7z m146 -49 c1 -35 5 -82 9 -105
8 -40 7 -43 -14 -43 -29 0 -35 22 -35 128 0 75 2 82 20 82 18 0 20 -7 20 -62z
m210 37 c34 -37 40 -120 10 -157 -21 -27 -51 -35 -85 -22 -24 10 -45 58 -45
107 0 86 68 127 120 72z m221 9 c14 -17 24 -132 15 -168 -4 -17 -13 -26 -27
-26 -19 0 -20 4 -14 64 8 70 1 106 -20 106 -26 0 -37 -39 -30 -106 6 -59 5
-64 -13 -64 -12 0 -22 9 -26 23 -7 28 -8 151 0 170 7 19 99 20 115 1z m203 -7
c8 -12 18 -59 22 -105 l7 -82 -47 0 c-52 0 -86 25 -86 63 0 24 31 59 63 71 10
3 17 12 15 19 -6 15 -48 22 -48 8 0 -16 -20 -13 -26 4 -17 44 73 64 100 22z
m392 -2 c23 -35 6 -71 -42 -91 -24 -10 -34 -20 -32 -32 4 -23 42 -27 62 -6 22
22 32 10 18 -21 -14 -31 -57 -43 -91 -24 -48 27 -54 136 -10 180 28 28 75 25
95 -6z m341 -5 c7 -14 13 -60 13 -102 l0 -78 -45 0 c-49 0 -85 25 -85 59 0 26
35 68 65 75 14 4 25 11 25 17 0 16 -31 23 -51 11 -26 -17 -29 -15 -29 12 0 29
13 36 60 33 26 -2 38 -8 47 -27z m429 9 c14 -16 19 -36 19 -81 0 -53 -3 -62
-28 -84 -36 -31 -62 -30 -92 1 -33 33 -36 119 -4 159 26 33 77 36 105 5z m143
-11 c-11 -41 -11 -109 0 -127 27 -43 58 34 45 114 -6 41 -4 45 14 45 11 0 23
-7 26 -16 8 -20 8 -89 0 -146 l-6 -45 -55 -1 c-49 0 -55 2 -64 24 -10 29 -12
107 -3 153 5 24 12 31 30 31 21 0 22 -3 13 -32z m811 12 c37 -37 23 -75 -37
-101 -49 -21 -53 -42 -8 -47 19 -3 33 2 42 14 12 17 13 17 13 -2 0 -33 -23
-55 -59 -56 -44 -1 -71 30 -71 83 0 100 68 161 120 109z m198 4 c18 -12 20
-19 11 -35 -10 -19 -12 -19 -28 -5 -11 10 -21 12 -31 6 -12 -8 -8 -16 23 -43
33 -28 38 -37 35 -67 -2 -25 -10 -38 -30 -50 -25 -13 -31 -13 -55 0 -30 17
-42 55 -24 73 8 8 11 6 11 -6 0 -18 35 -41 50 -32 18 11 10 30 -25 58 -41 33
-44 59 -10 92 28 29 42 31 73 9z m1175 2 c3 -8 0 -17 -7 -19 -8 -3 -11 -17 -8
-36 6 -43 -20 -79 -63 -87 -19 -3 -35 -11 -35 -16 0 -6 12 -8 27 -5 40 8 76
-9 65 -30 -7 -12 -23 -16 -60 -16 -28 1 -55 4 -61 7 -16 10 -14 41 4 56 10 9
13 24 8 55 -4 35 -2 46 16 64 11 11 32 21 45 21 14 0 28 5 31 10 9 15 32 12
38 -4z m-5403 -13 c0 -13 3 -14 12 -5 15 15 54 16 63 2 4 -6 16 -3 31 7 24 15
26 15 46 -4 22 -22 37 -82 38 -150 0 -39 -2 -43 -25 -43 -23 0 -25 3 -19 38 8
57 -8 117 -31 117 -18 0 -20 -6 -16 -74 2 -54 -1 -76 -11 -82 -25 -16 -28 -9
-28 57 0 70 -12 104 -35 104 -22 0 -29 -46 -18 -107 8 -45 7 -56 -4 -60 -8 -3
-19 -1 -24 4 -12 12 -25 174 -16 197 8 21 37 20 37 -1z m517 -9 c21 -21 24
-32 19 -62 -3 -20 -17 -47 -30 -61 -22 -21 -27 -23 -42 -10 -15 12 -16 11 -9
-20 6 -30 5 -32 -17 -29 -21 3 -24 9 -31 92 -4 49 -6 95 -3 103 3 8 21 13 46
13 31 0 47 -7 67 -26z m189 18 c21 -14 32 -48 39 -124 l7 -78 -46 0 c-95 0
-121 95 -36 130 16 7 30 17 30 22 0 15 -32 22 -51 10 -10 -7 -21 -12 -24 -12
-7 0 -6 46 2 53 9 9 65 9 79 -1z m3670 -8 c-3 -9 -6 -56 -6 -106 0 -87 -1 -89
-22 -86 -22 3 -23 6 -20 88 4 106 8 120 34 120 14 0 18 -5 14 -16z m434 -4
c11 -21 12 -87 2 -145 -6 -32 -12 -41 -31 -43 -22 -4 -23 -2 -15 35 14 65 11
128 -6 128 -23 0 -40 -45 -40 -107 0 -53 -2 -58 -21 -58 -21 0 -22 3 -16 88 7
118 8 120 68 120 38 0 52 -5 59 -18z m136 -17 c-3 -21 -6 -68 -6 -105 0 -61
-2 -68 -19 -68 -11 0 -22 3 -24 8 -6 10 9 178 17 191 4 6 14 11 23 11 12 0 14
-7 9 -37z m148 30 c3 -4 21 -7 39 -7 l32 -1 3 -60 c4 -90 -9 -139 -37 -143
-21 -3 -23 -1 -17 20 4 12 10 51 13 86 5 51 3 62 -9 62 -28 0 -42 -31 -44 -98
-2 -37 -5 -66 -8 -64 -3 1 -13 2 -22 2 -15 0 -16 10 -10 80 3 44 11 91 16 105
9 24 29 32 44 18z m-4174 -579 c0 -8 -7 -14 -15 -14 -15 0 -21 21 -9 33 10 9
24 -2 24 -19z m142 -59 c-1 -44 1 -104 6 -132 9 -51 8 -53 -13 -53 -19 0 -23
7 -29 53 -8 67 -8 181 0 202 4 9 14 15 23 13 13 -3 16 -16 13 -83z m212 33 c3
-29 6 -90 6 -135 l0 -83 -50 0 c-42 0 -52 4 -66 25 -41 63 7 211 58 178 8 -4
9 6 5 30 -5 34 -4 37 17 37 20 0 24 -6 30 -52z m124 29 c2 -10 -3 -17 -12 -17
-18 0 -29 16 -21 31 9 14 29 6 33 -14z m1172 8 c0 -7 -8 -19 -17 -25 -17 -10
-17 -10 0 -20 20 -13 23 -30 3 -30 -22 0 -26 -25 -19 -105 6 -71 5 -75 -14
-75 -24 0 -33 33 -33 122 0 37 -4 57 -10 53 -5 -3 -10 1 -10 9 0 8 6 19 13 23
7 4 18 20 24 36 9 19 20 27 38 27 15 0 25 -6 25 -15z m1692 -10 c-2 -11 -5
-72 -7 -135 -3 -104 -5 -115 -21 -115 -18 0 -19 9 -17 123 1 68 4 130 7 138 9
23 42 13 38 -11z m-4029 -50 c4 -33 6 -91 5 -130 l-3 -70 -40 -3 c-32 -2 -45
2 -63 21 -48 51 -21 183 38 181 19 -1 21 3 15 33 -6 32 -4 34 17 31 20 -3 24
-11 31 -63z m265 33 c-3 -30 -1 -33 23 -30 33 4 56 -19 65 -63 15 -83 -27
-149 -90 -143 l-31 3 -9 117 c-9 130 -6 148 24 148 18 0 21 -5 18 -32z m4260
15 c-4 -22 -22 -20 -26 1 -2 10 3 16 13 16 10 0 15 -7 13 -17z m-2053 -12 c-3
-12 0 -21 10 -25 19 -7 20 -26 0 -26 -22 0 -29 -45 -18 -107 9 -49 8 -55 -9
-64 -11 -6 -22 -8 -25 -5 -5 5 -11 87 -13 169 0 5 -4 5 -10 2 -5 -3 -10 1 -10
9 0 8 6 19 13 23 8 4 16 16 20 26 9 25 50 23 42 -2z m1092 -13 c-3 -7 -5 -2
-5 12 0 14 2 19 5 13 2 -7 2 -19 0 -25z m827 7 c-4 -15 -2 -25 5 -25 6 0 11
-7 11 -15 0 -8 -7 -15 -16 -15 -13 0 -15 -12 -13 -81 3 -61 0 -82 -11 -89 -25
-15 -30 -1 -30 86 0 49 -4 84 -10 84 -5 0 -10 7 -10 15 0 8 7 15 15 15 8 0 15
7 15 15 0 13 25 34 43 35 4 0 5 -11 1 -25z m-2785 -9 c9 -10 8 -15 -4 -19 -11
-5 -13 -12 -5 -32 17 -44 -11 -90 -60 -97 -45 -6 -26 -22 23 -19 45 2 48 1 45
-20 -3 -20 -10 -23 -60 -25 -68 -4 -87 14 -63 59 10 20 11 35 4 55 -14 41 3
80 38 87 15 4 35 10 43 15 21 12 26 12 39 -4z m-925 -18 c3 -7 7 -57 10 -110
5 -83 4 -98 -8 -98 -9 0 -20 9 -26 19 -11 22 -14 184 -3 194 10 11 23 8 27 -5z
m482 -63 c2 -38 6 -85 9 -102 5 -30 4 -33 -20 -33 l-25 0 0 106 c0 92 2 105
16 102 13 -2 17 -18 20 -73z m214 55 c6 -11 10 -57 10 -104 0 -83 -1 -86 -23
-86 -23 0 -24 2 -19 79 5 83 -5 104 -35 80 -12 -11 -14 -28 -11 -86 5 -71 4
-73 -19 -73 -23 0 -23 2 -23 98 0 54 2 101 6 104 3 3 27 6 55 6 38 0 52 -5 59
-18z m554 7 c11 -8 15 -19 10 -30 -7 -19 -20 -22 -29 -7 -9 14 -35 12 -35 -2
0 -7 16 -26 35 -41 27 -22 35 -35 35 -60 0 -42 -15 -57 -57 -57 -37 0 -70 37
-59 67 6 15 8 14 22 -5 8 -12 24 -22 35 -22 30 0 22 33 -14 55 -21 14 -33 30
-35 49 -6 52 49 84 92 53z m219 -19 c30 -41 29 -119 -3 -153 -61 -65 -147 15
-120 113 20 75 82 95 123 40z m454 -27 c2 -108 31 -101 32 7 1 45 4 52 21 52
17 0 20 -7 21 -52 1 -109 27 -113 36 -7 5 48 9 59 22 57 36 -8 -5 -192 -45
-205 -6 -2 -17 10 -24 27 l-13 31 -19 -33 c-19 -31 -21 -31 -34 -13 -21 28
-34 83 -34 143 0 43 3 52 18 52 14 0 18 -10 19 -59z m323 39 c17 -17 20 -33
20 -105 l0 -85 -41 0 c-58 0 -79 14 -79 54 0 33 26 66 63 79 9 4 17 11 17 17
0 20 -31 23 -50 5 -11 -10 -20 -16 -20 -12 0 3 -3 12 -6 20 -7 20 22 47 52 47
13 0 33 -9 44 -20z m142 9 c3 -9 10 -9 27 0 27 15 45 3 39 -25 -3 -14 -11 -18
-30 -16 -24 2 -28 -2 -34 -33 -3 -19 -3 -56 1 -81 6 -44 5 -45 -17 -42 -22 3
-23 7 -26 92 -2 49 -1 95 2 103 7 16 33 17 38 2z m253 -5 c10 -10 15 -29 13
-48 -2 -24 -12 -35 -43 -53 -22 -12 -40 -28 -40 -35 0 -21 55 -22 71 -1 13 17
13 17 14 -4 0 -31 -26 -53 -64 -53 -41 0 -56 17 -63 69 -7 50 1 80 28 114 23
31 59 35 84 11z m339 0 c13 -12 14 -20 5 -36 -10 -19 -12 -20 -21 -5 -10 19
-38 23 -38 5 0 -6 16 -26 35 -44 40 -36 45 -72 15 -99 -23 -21 -79 -23 -91 -3
-12 18 -11 65 0 73 5 3 11 -5 13 -17 2 -17 11 -24 31 -26 39 -5 35 21 -7 47
-19 12 -37 28 -40 37 -21 55 57 110 98 68z m211 -9 c33 -33 36 -119 4 -159
-25 -32 -77 -36 -103 -7 -38 42 -28 145 17 176 31 21 54 19 82 -10z m-4335 5
c24 -13 38 -60 42 -135 l2 -60 -46 -3 c-54 -4 -78 15 -78 58 0 32 20 57 58 71
23 9 24 12 11 25 -16 15 -49 10 -49 -8 0 -5 -4 -6 -10 -3 -16 10 -12 43 8 54
22 13 39 13 62 1z m237 -4 c10 -10 22 -136 16 -168 -4 -19 -12 -28 -24 -28
-17 0 -19 8 -19 79 0 83 -9 102 -37 80 -13 -11 -14 -27 -9 -86 5 -67 4 -73
-13 -73 -11 0 -21 9 -25 23 -8 30 -8 172 0 180 9 8 102 3 111 -7z m701 -55
c-2 -78 13 -111 40 -89 11 10 13 27 8 85 -5 68 -4 73 14 73 26 0 32 -26 28
-125 l-3 -80 -48 -1 c-66 -2 -77 16 -77 123 0 76 2 83 19 83 18 0 20 -7 19
-69z m3677 52 c-14 -38 -17 -110 -5 -133 l13 -24 20 25 c16 20 18 34 13 87 -5
61 -5 63 17 60 19 -3 22 -10 25 -54 2 -28 -1 -73 -5 -100 l-8 -49 -48 -1 c-25
-1 -51 4 -55 10 -17 21 -23 70 -16 133 6 59 8 63 31 63 20 0 24 -4 18 -17z
m368 -85 c-1 -96 -3 -103 -22 -106 -20 -3 -21 1 -21 96 0 102 3 112 29 112 14
0 16 -15 14 -102z m207 82 c25 -25 27 -107 5 -150 -43 -84 -149 -15 -131 85
15 76 81 110 126 65z m220 0 c11 -21 13 -77 4 -144 -6 -41 -10 -46 -32 -46
-21 0 -23 3 -18 23 15 49 19 134 6 142 -27 16 -45 -23 -44 -96 1 -65 -1 -70
-20 -67 -19 3 -21 9 -20 79 2 121 5 127 64 127 39 0 53 -5 60 -18z m191 10
c21 -12 25 -35 9 -45 -6 -4 -18 -1 -26 6 -11 9 -18 9 -27 0 -8 -8 -2 -18 26
-42 41 -34 48 -70 20 -101 -34 -38 -103 -13 -103 38 0 29 11 31 28 4 14 -23
52 -27 52 -6 0 7 -16 26 -35 40 -40 31 -46 65 -15 96 22 22 42 25 71 10z
m-1537 -597 c4 -32 10 -67 13 -78 3 -14 2 -17 -5 -10 -6 6 -13 21 -15 35 -3
14 -3 -8 -1 -49 2 -41 8 -79 14 -85 5 -5 10 -18 10 -28 0 -10 7 -18 15 -18 8
0 15 -7 15 -15 0 -8 -6 -12 -14 -9 -8 3 -17 0 -21 -6 -9 -14 14 -32 32 -25 7
2 22 -24 38 -65 28 -72 54 -116 112 -187 26 -33 41 -43 64 -43 21 0 29 -5 29
-18 0 -20 26 -47 75 -77 62 -39 147 -85 157 -85 6 0 8 17 4 45 -4 25 -4 65 0
90 5 36 10 45 27 45 18 0 19 -4 14 -60 -4 -33 -4 -80 0 -105 5 -41 10 -48 44
-66 21 -10 40 -19 42 -19 2 0 2 14 -1 30 -5 35 17 66 57 82 23 8 23 10 8 25
-15 15 -18 15 -36 -2 -20 -17 -21 -17 -27 0 -11 28 9 50 46 50 49 0 67 -33 73
-127 l4 -78 -41 -1 c-41 0 -40 -1 58 -50 55 -27 102 -51 104 -53 6 -6 -149 4
-303 20 -252 26 -367 41 -526 70 l-35 6 4 84 c4 73 2 84 -12 84 -25 0 -37 -46
-30 -112 7 -59 6 -60 -17 -56 -23 3 -24 7 -27 88 -4 124 -2 128 58 128 68 0
75 -12 75 -119 l0 -89 59 0 c56 0 58 1 44 18 -22 24 -31 75 -20 114 9 34 9 34
-39 51 -71 26 -185 94 -214 129 -21 25 -26 40 -24 82 1 28 5 56 9 61 4 6 10
22 14 37 3 15 15 30 28 34 21 6 21 7 3 20 -17 13 -16 14 11 24 15 6 24 14 18
18 -5 4 -9 18 -8 32 1 14 -2 30 -7 36 -6 8 -4 14 6 18 20 7 19 38 -4 79 -13
24 -16 39 -9 50 5 10 6 22 3 27 -11 18 6 32 22 18 14 -12 15 -9 9 25 -4 21 -3
37 2 37 6 0 13 -26 16 -57z m-3440 -91 c1 -131 1 -132 -21 -132 -23 0 -23 2
-23 128 0 71 3 132 7 136 4 4 13 5 21 4 12 -2 15 -30 16 -136z m920 1 c1 -132
1 -133 -21 -133 -23 0 -23 2 -23 128 0 71 3 132 7 136 4 4 13 5 21 4 11 -2 15
-30 16 -135z m200 121 c3 -9 6 -69 6 -135 l0 -119 -50 0 c-42 0 -52 4 -66 25
-38 59 6 196 58 179 17 -5 19 -2 13 30 -6 32 -5 36 13 36 11 0 23 -7 26 -16z
m858 -22 c-2 -30 0 -32 22 -26 41 10 66 -25 66 -95 0 -81 -25 -113 -84 -109
l-41 3 -3 110 c-3 129 2 158 26 153 12 -3 16 -12 14 -36z m221 -99 c-2 -126
-3 -138 -20 -138 -16 0 -18 12 -21 124 -3 138 -1 151 25 151 17 0 18 -12 16
-137z m1822 116 c0 -7 -8 -15 -17 -17 -18 -3 -25 18 -11 32 10 10 28 1 28 -15z
m1329 -61 c-6 -76 -6 -82 9 -69 9 7 22 28 29 47 8 22 19 34 30 34 23 0 23 -16
-1 -60 -18 -33 -18 -35 0 -60 10 -14 21 -37 25 -52 5 -25 3 -28 -18 -28 -20 0
-27 7 -37 40 -6 22 -16 40 -21 40 -6 0 -10 -18 -10 -40 0 -33 -4 -40 -19 -40
-11 0 -21 9 -25 23 -8 29 -7 128 0 195 6 43 10 52 26 52 18 0 19 -5 12 -82z
m-7742 27 c-3 -33 -1 -38 9 -27 19 18 47 15 59 -8 6 -11 10 -55 8 -98 -3 -69
-5 -77 -24 -80 -20 -3 -21 0 -16 79 4 75 3 81 -14 77 -16 -3 -19 -14 -22 -81
-3 -69 -5 -77 -22 -77 -19 0 -20 8 -20 123 0 68 3 127 7 131 4 4 14 5 23 4 11
-3 14 -14 12 -43z m1133 -85 c0 -128 0 -130 -22 -130 -23 0 -23 2 -23 130 0
128 0 130 23 130 22 0 22 -2 22 -130z m4583 83 c-5 -27 -7 -87 -3 -135 5 -73
3 -88 -9 -88 -8 0 -22 8 -31 17 -14 14 -16 33 -13 122 2 58 7 112 11 119 5 6
19 12 31 12 23 0 23 -2 14 -47z m2230 30 c-4 -22 -22 -20 -26 1 -2 10 3 16 13
16 10 0 15 -7 13 -17z m962 -4 c0 -24 -23 -21 -28 4 -2 10 3 17 12 17 10 0 16
-9 16 -21z m302 -24 c-3 -33 -1 -38 9 -27 21 20 49 14 59 -14 11 -28 13 -133
4 -158 -3 -9 -14 -16 -24 -16 -16 0 -18 8 -13 81 6 76 5 81 -13 77 -16 -3 -19
-14 -22 -81 -3 -69 -5 -77 -22 -77 -19 0 -20 7 -20 114 0 126 5 149 29 144 12
-3 15 -13 13 -43z m-9355 5 c-3 -13 0 -20 9 -20 8 0 14 -7 14 -15 0 -8 -7 -15
-16 -15 -15 0 -16 -10 -11 -79 4 -65 2 -81 -10 -85 -27 -11 -33 4 -33 85 0 46
-4 79 -10 79 -16 0 -12 17 13 44 27 31 52 35 44 6z m576 1 c-3 -11 2 -21 11
-24 22 -9 20 -24 -4 -30 -16 -4 -20 -14 -20 -44 0 -21 4 -53 9 -71 8 -27 7
-34 -11 -43 -11 -6 -22 -8 -25 -6 -3 3 -7 42 -10 86 -3 45 -10 81 -14 81 -5 0
-9 7 -9 15 0 8 6 15 14 15 7 0 16 9 19 20 3 12 14 20 25 20 15 0 19 -5 15 -19z
m8634 -1 c-3 -13 0 -20 9 -20 8 0 14 -7 14 -15 0 -8 -7 -15 -16 -15 -13 0 -15
-12 -13 -75 2 -46 -1 -79 -8 -86 -23 -23 -33 3 -33 82 0 64 -3 79 -15 79 -21
0 -19 7 13 40 32 34 57 39 49 10z m-681 -12 c4 -6 3 -13 -3 -15 -6 -2 -8 -21
-6 -46 6 -47 -13 -72 -56 -79 -14 -1 -26 -8 -28 -14 -3 -8 10 -10 40 -7 45 5
61 -4 52 -29 -6 -16 -104 -21 -122 -6 -18 14 -16 38 4 60 13 14 14 21 5 30
-29 29 1 98 43 98 13 0 27 5 30 10 8 14 32 13 41 -2z m-6858 -21 c18 -14 15
-61 -6 -80 -9 -8 -30 -20 -45 -26 -35 -14 -30 -35 8 -39 19 -3 33 2 42 14 12
17 13 17 13 0 0 -38 -19 -56 -60 -56 -34 0 -42 4 -55 30 -50 97 27 215 103
157z m262 14 c0 -5 14 -8 32 -7 24 1 33 -4 36 -18 5 -26 -16 -45 -29 -26 -8
13 -12 12 -25 -5 -12 -16 -14 -34 -9 -82 6 -58 5 -63 -13 -63 -14 0 -21 9 -26
31 -8 42 -8 164 1 172 9 10 33 8 33 -2z m248 -7 c44 -31 23 -89 -41 -113 -35
-14 -30 -35 8 -39 19 -3 33 2 42 14 12 16 13 16 13 -7 0 -35 -18 -49 -62 -49
-31 0 -40 5 -53 30 -35 68 2 178 60 180 6 0 21 -7 33 -16z m193 -3 c21 -17 24
-29 27 -104 4 -80 3 -84 -19 -90 -29 -8 -76 2 -89 19 -6 7 -10 28 -8 46 2 25
12 38 41 57 33 22 36 26 23 40 -14 13 -17 13 -34 -2 -20 -19 -32 -13 -32 14 0
38 55 50 91 20z m419 -48 c8 -100 27 -96 32 7 2 41 7 56 19 58 13 2 17 -9 21
-63 3 -36 9 -69 12 -72 12 -12 18 7 24 72 4 54 8 65 21 63 25 -6 18 -108 -11
-160 -29 -52 -41 -56 -57 -21 l-13 28 -15 -28 c-8 -16 -20 -27 -26 -24 -28 9
-62 178 -40 201 17 16 28 -5 33 -61z m331 38 c24 -25 29 -38 29 -79 0 -65 -27
-102 -76 -102 -28 0 -38 6 -55 33 -29 46 -22 122 15 154 35 30 51 29 87 -6z
m139 19 c0 -5 13 -7 30 -4 36 8 52 -18 26 -44 -10 -10 -16 -12 -16 -4 0 7 -7
12 -15 12 -20 0 -28 -39 -23 -105 4 -52 3 -55 -19 -55 -23 0 -23 2 -23 105 0
98 1 105 20 105 11 0 20 -4 20 -10z m724 -11 c17 -13 26 -30 26 -48 0 -39 -41
-96 -68 -95 -17 0 -22 -5 -22 -23 0 -16 -6 -23 -20 -23 -19 0 -20 7 -20 98 0
54 3 102 7 105 14 14 71 6 97 -14z m138 10 c3 -9 9 -9 25 -1 26 14 48 -7 38
-38 -6 -20 -25 -28 -25 -10 0 6 -7 10 -15 10 -20 0 -29 -42 -21 -107 6 -52 6
-54 -16 -51 -22 3 -23 8 -26 92 -2 49 -1 95 2 103 7 16 33 17 38 2z m233 5
c45 -18 61 -131 24 -178 -31 -39 -83 -37 -110 7 -50 80 9 200 86 171z m563
-10 c27 -19 29 -65 5 -86 -10 -8 -31 -20 -46 -26 -35 -15 -31 -36 8 -40 19 -3
33 2 42 14 12 17 13 17 13 -2 0 -51 -60 -78 -101 -45 -21 17 -24 27 -24 84 0
55 4 69 24 91 28 30 47 32 79 10z m145 4 c3 -10 8 -10 21 1 14 12 22 12 37 3
14 -9 25 -9 45 0 23 11 28 10 45 -11 15 -19 19 -40 19 -105 0 -46 -3 -85 -6
-88 -3 -3 -13 -4 -22 -1 -14 3 -16 15 -14 74 2 44 -1 75 -8 84 -21 26 -30 6
-30 -70 0 -63 -3 -76 -19 -85 -11 -5 -22 -10 -26 -10 -3 0 -3 35 1 78 5 62 4
80 -8 90 -27 22 -43 -13 -43 -92 0 -56 -3 -71 -15 -71 -24 0 -38 111 -24 184
7 32 38 44 47 19z m348 2 c21 -12 25 -35 9 -45 -6 -4 -18 -1 -26 6 -12 10 -17
10 -27 0 -9 -10 -4 -19 26 -43 29 -24 37 -37 37 -64 0 -39 -36 -70 -70 -59
-27 9 -52 48 -44 69 6 15 8 15 21 -4 15 -21 47 -27 57 -11 4 5 -12 24 -34 41
-45 36 -52 68 -20 100 22 22 42 25 71 10z m777 -6 c44 -31 23 -89 -41 -113
-35 -14 -30 -35 8 -39 19 -3 34 2 43 15 12 16 13 15 10 -12 -6 -58 -85 -68
-113 -14 -35 67 2 177 60 179 6 0 21 -7 33 -16z m219 -14 c13 -26 18 -136 7
-164 -3 -9 -15 -16 -25 -16 -17 0 -18 6 -13 73 5 58 3 75 -8 85 -26 21 -40
-10 -39 -88 1 -64 -1 -70 -19 -70 -19 0 -20 7 -20 98 0 54 3 101 6 105 4 3 27
5 52 4 38 -2 49 -6 59 -27z m159 -26 c7 -62 1 -119 -17 -140 -13 -16 -45 -19
-53 -5 -8 13 4 42 14 36 15 -9 22 36 15 91 -7 57 -2 74 20 74 9 0 16 -19 21
-56z m169 50 c45 -18 61 -131 24 -178 -40 -51 -111 -25 -124 48 -16 80 40 153
100 130z m155 -19 c0 -15 7 -40 16 -57 20 -38 34 -26 39 33 2 29 8 45 18 47
25 5 29 -15 17 -74 -9 -41 -21 -65 -49 -94 -45 -47 -81 -54 -81 -15 0 18 5 25
18 25 30 0 30 8 6 57 -33 64 -32 103 3 103 7 0 13 -11 13 -25z m343 -41 c4
-37 9 -69 12 -72 12 -12 19 12 23 74 4 53 7 64 21 62 12 -2 17 -18 21 -65 3
-34 8 -65 12 -68 9 -9 19 29 21 85 1 32 6 45 17 45 24 0 20 -110 -6 -159 -25
-50 -39 -54 -57 -21 l-14 27 -18 -28 -18 -28 -18 22 c-19 24 -45 151 -36 176
4 9 13 16 20 16 10 0 16 -19 20 -66z m334 44 c23 -18 35 -84 23 -128 -27 -100
-140 -71 -140 36 0 24 5 54 11 68 19 42 70 53 106 24z m137 15 c4 -5 20 -8 34
-8 18 0 28 -6 30 -19 5 -26 -16 -46 -28 -26 -19 31 -34 -7 -32 -80 2 -64 0
-70 -18 -70 -19 0 -20 7 -20 105 0 81 3 105 13 105 8 0 17 -3 21 -7z m520 -1
c3 -5 18 -7 35 -4 41 6 53 -21 49 -116 -3 -70 -5 -77 -25 -80 -21 -3 -21 -1
-16 77 6 78 5 81 -15 81 -27 0 -35 -29 -30 -105 3 -51 2 -55 -19 -55 -22 0
-23 3 -23 93 0 59 4 97 12 105 14 14 25 15 32 4z m-7821 -19 c10 -12 16 -43
19 -98 l3 -80 -44 -3 c-50 -4 -81 17 -81 55 0 27 41 73 65 73 8 0 15 7 15 15
0 18 -46 21 -53 3 -4 -10 -8 -10 -16 1 -28 42 57 72 92 34z m501 11 c17 -7 22
-39 7 -49 -5 -3 -12 -1 -16 5 -8 12 -45 13 -45 1 0 -5 15 -20 34 -35 43 -33
53 -60 32 -91 -12 -18 -25 -25 -49 -25 -41 0 -57 15 -57 54 l0 30 16 -22 c10
-14 24 -22 37 -20 32 5 31 25 -3 43 -82 43 -42 142 44 109z m221 -17 c34 -53
26 -145 -15 -167 -58 -31 -110 11 -110 90 0 63 28 100 75 100 25 0 39 -6 50
-23z m267 -37 c2 -33 7 -63 11 -67 15 -14 30 18 35 72 4 47 7 55 25 55 18 0
19 -5 14 -55 -6 -61 -44 -140 -67 -140 -23 0 -54 73 -58 138 -4 52 -3 57 16
57 17 0 20 -8 24 -60z m6695 28 c-3 -18 -3 -63 2 -100 7 -66 7 -68 -16 -68
-22 0 -23 2 -23 100 0 95 1 100 21 100 18 0 20 -4 16 -32z m699 -29 c3 -97 25
-97 32 1 4 51 7 60 23 60 16 0 19 -8 19 -52 0 -61 14 -95 26 -63 4 10 8 40 8
67 1 40 4 48 20 48 16 0 18 -7 14 -58 -4 -58 -34 -132 -56 -140 -6 -2 -17 8
-24 23 l-12 26 -21 -28 -22 -27 -17 32 c-20 40 -38 129 -30 154 3 10 13 18 22
18 14 0 17 -11 18 -61z m261 -39 c2 -94 1 -100 -17 -100 -19 0 -20 7 -20 100
0 89 2 100 18 100 15 0 17 -12 19 -100z m-3036 -95 c-6 -11 -18 37 -19 75 0
15 5 7 12 -20 7 -25 10 -49 7 -55z m-443 53 c27 -27 -1 -73 -35 -61 -28 10
-13 68 18 72 3 1 10 -4 17 -11z m-3918 -429 c0 -12 -29 -24 -37 -16 -3 4 -3
13 0 21 6 16 37 11 37 -5z m986 -15 c7 -27 -3 -221 -12 -236 -6 -10 -75 -10
-90 0 -34 23 -43 90 -20 147 15 34 49 61 66 50 6 -4 10 9 10 29 0 29 4 36 20
36 13 0 22 -9 26 -26z m1248 20 c13 -5 15 -14 10 -41 -6 -34 -6 -35 17 -23 37
20 59 -16 59 -99 0 -84 -8 -111 -31 -111 -17 0 -18 7 -12 86 6 81 5 86 -13 82
-17 -3 -19 -14 -22 -86 -3 -74 -5 -82 -22 -82 -19 0 -20 8 -20 124 0 109 5
156 15 156 2 0 11 -3 19 -6z m1196 -20 c0 -8 -9 -14 -20 -14 -22 0 -28 26 -7
33 16 6 27 -1 27 -19z m-3733 -3 c-3 -12 1 -22 9 -25 21 -8 17 -33 -7 -39 -19
-5 -21 -12 -18 -77 3 -60 1 -73 -14 -81 -24 -14 -30 7 -25 91 3 52 0 70 -9 70
-21 0 -15 19 15 50 32 34 57 39 49 11z m160 -2 c-3 -12 0 -22 9 -26 21 -8 17
-30 -7 -36 -20 -5 -21 -11 -17 -76 5 -70 -2 -91 -30 -91 -11 0 -13 17 -11 85
3 63 1 85 -8 85 -22 0 -15 18 18 50 37 35 54 38 46 9z m3022 -41 c-4 -35 -5
-96 -2 -135 6 -68 5 -73 -14 -73 -17 0 -21 8 -26 54 -3 29 -3 90 0 135 5 75 8
81 28 81 20 0 21 -3 14 -62z m-1182 33 c-3 -12 1 -22 9 -25 21 -8 17 -33 -7
-39 -21 -6 -22 -10 -15 -82 6 -65 5 -76 -10 -82 -26 -10 -35 17 -31 95 3 56 1
72 -10 72 -21 0 -15 19 15 50 32 34 57 39 49 11z m4457 -28 c-7 -2 -10 -20 -7
-46 5 -45 -12 -71 -51 -78 -11 -2 -21 -9 -23 -15 -3 -8 10 -10 42 -6 44 5 47
4 43 -18 -3 -21 -8 -23 -63 -24 -55 -1 -60 1 -63 22 -2 13 2 29 8 37 9 11 9
22 -1 49 -15 42 0 86 28 86 10 0 29 6 43 14 21 11 27 11 40 -2 10 -10 11 -16
4 -19z m-5720 12 c3 -9 0 -15 -8 -15 -11 0 -13 -10 -9 -40 7 -48 -12 -74 -58
-84 -41 -8 -38 -28 4 -21 38 7 62 -7 54 -29 -5 -14 -18 -16 -64 -14 -54 3 -58
5 -61 29 -2 14 4 31 11 38 12 9 13 18 4 42 -16 41 7 83 48 87 17 2 34 8 40 13
14 14 32 11 39 -6z m765 1 c9 -10 8 -15 -3 -19 -12 -5 -13 -11 -4 -35 15 -39
-9 -78 -54 -90 -50 -13 -46 -30 5 -25 45 5 69 -9 49 -29 -14 -14 -104 -18
-119 -6 -17 14 -16 38 2 58 12 13 13 23 6 44 -17 43 13 96 55 96 13 0 26 5 29
10 9 14 20 12 34 -4z m2103 -23 c-9 -3 -11 -16 -6 -39 8 -44 -14 -79 -55 -87
-46 -10 -37 -24 13 -23 50 1 59 -4 51 -27 -7 -18 -90 -28 -117 -15 -22 11 -23
51 -3 68 11 9 13 16 5 24 -15 15 -12 73 6 90 8 9 26 16 38 16 13 0 29 7 36 16
12 13 15 13 29 -2 12 -13 13 -18 3 -21z m2218 22 c10 -12 9 -15 -5 -15 -12 0
-15 -5 -10 -17 19 -44 17 -62 -8 -87 -15 -14 -35 -26 -47 -26 -11 0 -20 -4
-20 -9 0 -5 20 -9 44 -8 49 2 59 -3 51 -26 -7 -18 -90 -28 -117 -15 -22 10
-23 41 -4 60 10 10 11 20 4 31 -5 10 -8 34 -6 54 3 32 8 39 33 46 17 5 37 13
45 18 22 11 26 11 40 -6z m-6186 -17 c8 -13 7 -21 -3 -30 -11 -10 -14 -10 -18
0 -8 22 -43 13 -53 -14 -24 -63 4 -109 48 -78 20 14 22 14 22 -4 0 -24 -20
-48 -47 -57 -34 -9 -73 34 -73 80 0 45 22 100 47 114 25 15 64 9 77 -11z m119
-30 c-9 -69 -8 -97 7 -112 22 -21 40 22 40 96 0 61 2 68 20 68 18 0 20 -7 20
-79 0 -113 -8 -129 -62 -127 -64 2 -68 8 -68 89 0 91 7 117 32 117 17 0 18 -5
11 -52z m532 -56 c0 -101 0 -102 -24 -102 l-24 0 6 95 c6 98 11 119 30 112 7
-2 11 -40 12 -105z m145 99 c0 -4 12 -6 27 -3 36 7 53 -20 53 -84 0 -87 -9
-114 -37 -114 -20 0 -24 4 -18 18 4 9 9 45 12 80 5 58 4 62 -15 62 -27 0 -46
-65 -37 -121 6 -37 6 -39 -20 -39 l-27 0 7 93 c4 50 12 98 17 105 12 14 38 16
38 3z m6220 -11 c36 -36 24 -72 -32 -101 -32 -17 -37 -23 -28 -35 16 -19 39
-18 62 3 17 15 18 15 18 -8 0 -34 -18 -49 -56 -49 -45 0 -74 38 -74 97 0 93
60 143 110 93z m191 10 c21 -12 25 -35 8 -46 -6 -3 -16 -1 -22 5 -6 6 -17 11
-24 11 -25 0 -12 -25 27 -52 44 -31 53 -67 23 -100 -32 -35 -103 -10 -103 38
0 30 7 30 29 2 11 -13 24 -19 34 -15 25 9 21 24 -10 44 -57 34 -67 69 -33 103
22 22 42 25 71 10z m-5779 -17 c36 -33 9 -89 -53 -108 -26 -9 -20 -39 7 -43
12 -2 29 4 38 14 22 22 31 12 15 -18 -16 -30 -28 -38 -60 -38 -40 0 -63 33
-62 89 1 97 62 152 115 104z m632 -2 c29 -32 17 -72 -29 -98 -22 -12 -40 -28
-40 -35 0 -20 44 -22 66 -2 18 16 19 16 19 -1 0 -54 -86 -76 -116 -30 -26 40
-15 132 20 162 33 28 57 29 80 4z m506 -1 c36 -36 20 -81 -35 -105 -19 -7 -35
-20 -35 -28 0 -24 38 -27 65 -5 22 17 25 17 25 3 0 -17 -43 -65 -59 -65 -5 0
-21 4 -35 10 -53 20 -54 142 -1 188 32 27 49 28 75 2z m205 4 c23 -23 13 -39
-23 -36 -22 2 -34 -2 -41 -17 -16 -29 -13 -67 5 -86 15 -14 18 -14 40 0 23 15
24 15 24 -10 0 -15 -9 -31 -25 -41 -53 -35 -102 21 -91 103 7 50 22 78 51 92
29 14 42 13 60 -5z m345 6 c0 -7 6 -7 19 0 26 13 50 3 57 -24 3 -11 4 -57 2
-101 -3 -73 -5 -80 -24 -83 -21 -3 -22 -1 -17 82 6 82 5 86 -15 86 -27 0 -34
-25 -31 -103 2 -56 1 -62 -17 -62 -17 0 -19 9 -22 87 -2 50 2 97 8 108 11 21
40 28 40 10z m277 -12 c23 -19 35 -84 23 -128 -28 -103 -141 -82 -144 28 -2
93 63 146 121 100z m345 -10 c40 -46 33 -136 -14 -171 -55 -41 -108 7 -108 98
0 38 5 52 30 76 33 34 62 33 92 -3z m566 4 c28 -37 7 -79 -51 -101 -30 -12
-36 -35 -11 -45 25 -10 32 -7 54 16 l20 22 0 -22 c0 -29 -34 -62 -64 -62 -39
0 -66 43 -66 107 0 47 4 59 30 84 32 33 63 33 88 1z m195 8 c5 -4 6 -18 2 -30
-5 -16 -10 -19 -18 -11 -12 12 -47 15 -47 4 0 -3 18 -23 40 -43 45 -41 50 -70
20 -100 -38 -38 -100 -13 -100 42 l0 31 21 -27 c22 -28 43 -33 55 -15 4 7 -10
26 -35 46 -49 41 -53 72 -14 102 25 21 55 21 76 1z m332 -5 c21 -21 25 -34 27
-95 0 -38 1 -76 2 -82 1 -18 -87 -16 -109 2 -11 9 -15 25 -13 49 2 29 10 41
40 60 21 13 35 28 32 32 -8 13 -42 11 -46 -3 -6 -17 -28 0 -28 22 0 42 59 52
95 15z m1125 4 c14 -25 24 -131 16 -163 -4 -18 -13 -26 -27 -26 -20 0 -21 4
-14 68 5 53 3 71 -9 87 l-16 20 -16 -20 c-12 -16 -14 -34 -9 -87 6 -63 5 -68
-13 -68 -23 0 -32 34 -32 120 0 83 3 88 61 88 38 0 52 -5 59 -19z m353 -46
c-4 -51 -1 -73 10 -88 13 -16 18 -18 29 -7 14 14 16 88 5 135 -7 24 -5 27 17
27 23 0 25 -4 31 -84 10 -116 7 -123 -58 -122 -50 1 -52 2 -64 36 -13 38 -17
152 -6 163 3 4 14 7 23 7 15 0 17 -9 13 -67z m271 51 c18 -18 23 -35 30 -121
5 -60 5 -63 -19 -69 -53 -13 -105 18 -105 62 0 28 41 74 65 74 8 0 15 5 15 10
0 17 -31 24 -52 11 -15 -9 -20 -9 -24 4 -4 8 -4 22 0 30 7 20 70 20 90 -1z
m-2487 -99 c2 -96 1 -105 -16 -105 -24 0 -31 26 -31 121 0 79 3 89 29 89 13 0
16 -17 18 -105z m3291 -48 c4 -18 -23 -57 -40 -57 -4 0 -8 11 -8 25 0 14 -5
25 -11 25 -8 0 -7 5 1 15 17 21 54 15 58 -8z m-5261 -422 c3 -9 2 -68 -3 -133
l-9 -117 -44 -3 c-60 -4 -81 16 -81 80 0 27 7 62 15 78 16 32 50 55 65 45 6
-4 10 9 10 29 0 30 4 36 20 36 11 0 23 -7 27 -15z m2911 -42 c-3 -32 -2 -69 2
-83 7 -24 8 -24 24 12 9 21 16 45 16 53 0 22 34 15 38 -8 2 -9 -4 -31 -12 -48
-15 -29 -14 -33 5 -60 29 -41 30 -83 3 -87 -18 -2 -23 3 -28 31 -7 36 -28 62
-39 50 -4 -3 -4 -23 -1 -45 6 -34 4 -38 -15 -38 -25 0 -28 11 -36 145 -7 112
-2 135 27 135 19 0 20 -5 16 -57z m206 42 c3 -9 -1 -18 -10 -22 -19 -7 -28 2
-21 22 8 19 23 19 31 0z m-2831 -52 c-4 -32 -7 -93 -5 -136 l3 -78 -28 3 -28
3 3 113 c3 122 11 152 43 152 19 0 20 -4 12 -57z m127 17 c0 -34 -9 -60 -21
-60 -10 0 -12 83 -3 93 12 12 24 -4 24 -33z m785 -95 c0 -133 0 -135 -22 -135
-22 0 -23 3 -23 104 0 127 7 166 29 166 15 0 17 -16 16 -135z m1161 28 c-1
-60 3 -120 7 -135 7 -25 5 -28 -16 -28 -22 0 -25 6 -31 53 -8 67 -8 181 0 201
3 9 14 16 23 16 15 0 17 -13 17 -107z m1204 62 c10 -12 9 -15 -5 -15 -13 0
-15 -5 -10 -17 18 -42 17 -71 -4 -92 -12 -12 -30 -21 -40 -21 -11 0 -23 -4
-26 -10 -3 -5 13 -9 40 -8 52 1 59 -3 51 -29 -5 -14 -16 -18 -58 -18 -29 0
-59 4 -65 8 -17 11 -16 42 1 56 13 11 13 17 0 46 -18 45 -5 82 33 90 15 4 35
10 43 15 21 13 26 12 40 -5z m-4011 -35 c10 -20 12 -44 7 -103 l-8 -77 -37 0
c-48 0 -81 24 -81 59 0 30 31 64 68 76 12 3 22 11 22 16 0 16 -32 23 -51 11
-25 -16 -29 -15 -29 6 0 49 83 57 109 12z m223 1 c6 -16 7 -54 1 -101 -8 -73
-9 -75 -37 -78 -17 -2 -26 0 -22 7 12 19 27 122 21 141 -4 11 -13 20 -21 20
-21 0 -34 -42 -34 -111 0 -53 -2 -59 -21 -59 -21 0 -21 4 -17 93 2 50 7 97 11
103 4 7 30 12 58 12 45 0 51 -3 61 -27z m768 12 c0 -13 3 -14 12 -5 15 15 55
16 64 1 4 -8 9 -8 17 0 18 18 55 13 67 -8 11 -21 14 -149 4 -175 -3 -9 -15
-16 -25 -16 -17 0 -18 6 -12 80 5 69 4 80 -11 86 -25 10 -28 3 -35 -83 -5 -71
-8 -78 -28 -81 -26 -4 -26 -3 -13 68 12 63 5 100 -20 100 -24 0 -30 -19 -30
-101 0 -62 -2 -69 -20 -69 -19 0 -20 7 -20 94 0 52 3 101 6 110 8 22 44 21 44
-1z m2227 -5 c21 -17 36 -83 29 -122 -7 -37 -46 -76 -75 -76 -75 0 -106 136
-45 197 26 26 61 26 91 1z m347 -60 c3 -46 9 -93 12 -104 6 -22 -22 -42 -37
-27 -11 11 -24 176 -16 197 4 9 13 16 20 16 10 0 16 -22 21 -82z m212 57 c8
-13 15 -53 17 -101 2 -78 2 -79 -23 -82 -25 -3 -25 -3 -22 74 4 83 -6 107 -34
83 -14 -11 -16 -26 -10 -87 6 -72 5 -73 -17 -70 -21 3 -22 8 -25 92 -2 49 -1
95 2 102 3 7 23 12 51 12 36 -1 50 -6 61 -23z m-2279 -15 c7 -14 13 -60 13
-102 l0 -78 -45 0 c-49 0 -85 25 -85 59 0 26 35 68 65 75 14 4 25 11 25 17 0
16 -31 23 -51 11 -25 -16 -29 -15 -29 6 0 48 84 58 107 12z m269 -30 c1 -33 4
-64 8 -67 13 -14 26 22 26 75 0 45 3 52 20 52 17 0 20 -7 21 -52 1 -109 27
-113 36 -7 5 48 9 59 22 57 24 -5 17 -100 -11 -157 -28 -56 -42 -61 -58 -21
l-13 31 -19 -32 c-15 -24 -22 -28 -32 -20 -22 18 -55 169 -41 191 3 5 14 10
23 10 14 0 17 -11 18 -60z m328 41 c12 -13 19 -44 23 -105 l6 -86 -48 0 c-54
0 -85 20 -85 54 0 29 27 65 56 76 13 5 24 14 24 20 0 16 -30 24 -43 11 -18
-18 -27 -13 -27 13 0 39 64 50 94 17z m146 -9 c0 -31 27 -75 41 -67 5 4 9 26
9 51 0 37 3 44 20 44 48 0 9 -148 -50 -190 -39 -28 -60 -26 -60 5 0 14 3 25 8
25 4 0 13 4 20 9 11 7 10 16 -7 47 -28 52 -28 104 -1 104 15 0 20 -7 20 -28z
m264 22 c16 -6 22 -35 10 -47 -3 -3 -15 -1 -25 6 -13 8 -22 8 -29 1 -7 -7 2
-20 30 -43 44 -35 53 -76 24 -105 -34 -35 -104 -8 -104 41 0 29 7 29 29 1 11
-13 24 -19 34 -15 26 10 20 30 -16 52 -54 34 -48 115 8 115 13 0 30 -3 39 -6z
m507 -26 c28 -45 22 -133 -11 -160 -32 -26 -57 -23 -91 11 -24 25 -29 38 -29
79 0 65 27 102 76 102 28 0 38 -6 55 -32z m-4171 -514 c0 -9 -8 -23 -17 -30
-11 -8 -13 -13 -5 -14 20 0 14 -37 -7 -43 -16 -4 -21 -18 -27 -86 -6 -78 -8
-81 -32 -81 -23 0 -24 2 -18 43 17 107 19 127 7 127 -20 0 -12 20 27 60 38 41
72 52 72 24z m5610 -75 c0 -60 3 -80 13 -77 6 3 16 23 21 46 7 30 15 42 28 42
21 0 25 -48 7 -82 -9 -16 -7 -24 9 -41 31 -33 45 -76 27 -83 -24 -10 -37 0
-49 36 -6 18 -17 36 -25 38 -11 4 -13 -4 -8 -37 5 -38 3 -41 -18 -41 -27 0
-29 7 -45 148 -13 113 -10 132 20 132 18 0 20 -6 20 -81z m362 -19 c4 -52 11
-108 17 -123 16 -41 14 -47 -13 -47 -28 0 -31 8 -47 143 -12 105 -9 130 18
125 15 -3 19 -19 25 -98z m131 17 c4 -46 14 -105 22 -133 8 -27 15 -50 15 -51
0 -2 -11 -3 -24 -3 -15 0 -27 7 -30 18 -11 37 -26 149 -26 200 0 44 3 52 19
52 16 0 19 -11 24 -83z m-285 56 c-2 -10 -10 -18 -18 -18 -8 0 -16 8 -18 18
-2 12 3 17 18 17 15 0 20 -5 18 -17z m-2720 -26 c2 -10 -3 -17 -12 -17 -18 0
-29 16 -21 31 9 14 29 6 33 -14z m-2913 -30 c28 -40 16 -116 -25 -157 -28 -28
-84 -27 -104 2 -35 50 -9 149 45 172 38 16 65 11 84 -17z m2408 18 c-3 -9 2
-22 13 -30 19 -13 13 -30 -9 -30 -8 0 -12 -26 -12 -80 0 -77 -6 -95 -32 -95
-10 0 -13 25 -13 91 0 57 -4 88 -10 84 -5 -3 -10 3 -10 14 0 12 6 21 14 21 7
0 16 9 19 20 3 12 14 20 26 20 14 0 19 -5 14 -15z m-2268 -5 c4 -7 13 -7 26 0
11 6 24 8 29 5 15 -9 12 -41 -5 -55 -10 -9 -15 -9 -15 -1 0 6 -7 11 -15 11
-21 0 -35 -41 -35 -106 0 -51 -1 -54 -25 -54 -19 0 -25 5 -25 21 0 24 19 158
25 177 5 14 31 16 40 2z m372 -2 c44 3 55 -24 43 -111 -13 -86 -18 -97 -46
-97 -13 0 -24 1 -24 3 0 1 7 20 15 42 8 22 14 59 15 83 0 36 -3 43 -17 40 -27
-5 -43 -47 -43 -111 0 -55 -1 -58 -22 -55 -21 3 -23 8 -20 53 6 111 29 174 56
157 6 -3 25 -5 43 -4z m5603 -3 c16 -19 5 -54 -12 -37 -14 14 -48 16 -48 2 0
-5 12 -16 28 -24 45 -23 64 -51 60 -87 -4 -43 -40 -59 -84 -38 -22 11 -30 22
-32 47 l-3 32 26 -26 c14 -14 31 -24 38 -21 20 6 19 35 -2 42 -59 18 -91 81
-59 113 17 17 73 15 88 -3z m-5348 -12 c38 -34 6 -93 -59 -109 -30 -8 -27 -38
5 -42 13 -2 32 4 43 14 17 16 19 16 19 1 0 -44 -90 -78 -118 -44 -46 55 3 197
69 197 12 0 31 -7 41 -17z m138 -55 c1 -64 2 -71 14 -55 8 10 17 41 21 68 6
40 11 49 27 49 17 0 19 -5 13 -42 -4 -24 -2 -54 3 -68 9 -24 9 -24 20 -3 7 12
13 42 14 67 3 40 6 46 26 46 20 0 22 -3 16 -42 -7 -56 -55 -152 -77 -156 -11
-2 -21 6 -28 25 l-10 28 -17 -28 c-9 -15 -22 -27 -28 -27 -19 0 -34 58 -34
130 0 69 4 80 27 80 10 0 13 -19 13 -72z m4373 57 c13 -9 17 -20 12 -34 -6
-19 -8 -20 -30 -5 -18 12 -25 12 -31 3 -5 -8 0 -17 11 -23 35 -20 75 -64 75
-83 0 -32 -25 -56 -58 -56 -39 0 -72 28 -72 61 l0 25 23 -21 c13 -12 31 -22
40 -22 32 0 26 19 -15 47 -31 20 -44 37 -46 57 -6 53 49 84 91 51z m365 -62
c7 -43 15 -90 18 -105 5 -24 3 -28 -15 -28 -28 0 -38 27 -46 128 -7 77 -6 82
12 82 16 0 21 -12 31 -77z m-4322 25 c-3 -24 -2 -56 3 -73 l8 -30 12 28 c6 16
11 38 11 50 0 42 12 67 31 67 16 0 18 -6 13 -44 -4 -25 -3 -57 0 -72 11 -41
27 -16 35 53 5 44 10 59 24 61 37 7 17 -113 -30 -175 -29 -40 -36 -41 -52 -6
l-12 27 -23 -29 c-23 -29 -23 -29 -35 -7 -18 33 -32 122 -25 159 5 24 12 33
26 33 18 0 20 -5 14 -42z m342 14 c9 -11 12 -44 10 -102 l-3 -85 -47 1 c-55 0
-78 16 -78 54 0 30 48 80 76 80 19 0 18 26 -1 34 -8 3 -21 -2 -30 -10 -16 -17
-35 -11 -35 11 0 41 80 54 108 17z m2892 18 c0 -6 8 -5 20 2 16 10 24 10 41 0
16 -10 24 -10 35 -1 21 17 60 3 73 -28 6 -16 12 -59 14 -98 2 -66 1 -70 -20
-73 -22 -3 -23 0 -23 65 0 72 -16 113 -39 99 -9 -6 -10 -29 -5 -87 l7 -79 -27
0 c-26 0 -26 1 -26 74 0 76 -12 103 -39 86 -10 -6 -13 -27 -9 -84 5 -78 1 -90
-25 -80 -11 4 -17 30 -22 99 -4 51 -4 98 -1 104 9 14 46 14 46 1z m300 -10 c0
-26 27 -80 40 -80 14 0 22 38 15 70 -6 27 -4 30 19 30 24 0 26 -3 26 -42 0
-24 -9 -61 -19 -84 -33 -72 -111 -114 -111 -59 0 14 3 25 8 25 4 0 13 4 21 9
11 7 10 15 -9 40 -12 18 -24 50 -27 71 -5 36 -3 40 16 40 15 0 21 -6 21 -20z
m-3044 -25 c0 -20 8 -43 17 -52 15 -15 17 -14 27 11 5 15 10 38 10 52 0 17 5
24 20 24 16 0 20 -7 20 -30 0 -63 -45 -137 -102 -166 -39 -20 -50 -17 -46 14
2 19 9 28 26 30 27 4 26 0 2 53 -27 61 -27 99 3 99 18 0 22 -6 23 -35z m284
20 c16 -19 -6 -53 -24 -35 -11 11 -46 14 -46 3 0 -4 19 -24 41 -45 35 -32 40
-42 35 -65 -9 -35 -32 -53 -67 -53 -34 0 -59 24 -59 56 0 29 11 31 28 4 16
-26 52 -27 52 0 0 12 -12 26 -30 35 -61 31 -43 115 24 115 18 0 39 -7 46 -15z
m521 -4 c34 -27 40 -125 9 -163 -27 -35 -74 -37 -107 -6 -18 17 -23 32 -23 70
0 100 60 149 121 99z m289 -33 c0 -29 3 -77 6 -105 7 -52 6 -53 -20 -53 l-26
0 0 98 c0 100 3 112 27 112 9 0 13 -15 13 -52z m150 42 c0 -6 8 -5 20 2 16 10
24 10 40 0 15 -9 26 -10 41 -2 51 28 83 -29 77 -138 -3 -50 -6 -57 -25 -60
-21 -3 -22 0 -20 72 1 46 -3 79 -10 87 -23 23 -33 -2 -33 -82 0 -78 0 -79 -26
-79 l-26 0 7 68 c5 53 3 71 -9 87 l-16 20 -16 -20 c-12 -15 -15 -37 -12 -87 4
-65 3 -68 -19 -68 -22 0 -23 3 -23 98 0 54 3 102 7 105 10 11 43 8 43 -3z
m375 -15 c29 -28 30 -43 12 -88 -20 -47 -44 -64 -69 -48 -19 12 -19 10 -13
-18 6 -28 4 -31 -19 -31 l-26 0 0 98 c0 54 3 102 7 105 3 4 24 7 45 7 28 0 46
-7 63 -25z m137 14 c3 -9 10 -8 28 1 20 11 25 10 36 -5 17 -22 -1 -64 -19 -46
-6 6 -17 11 -25 11 -11 0 -13 -16 -10 -80 3 -76 2 -80 -18 -80 -18 0 -22 8
-28 53 -3 28 -6 76 -6 105 0 45 3 52 19 52 11 0 21 -5 23 -11z m267 -15 c56
-71 27 -184 -47 -184 -54 0 -91 65 -78 136 14 72 84 100 125 48z m144 -31 c3
-31 13 -63 21 -71 13 -13 16 -10 26 28 7 24 9 57 6 73 -5 25 -3 28 17 25 20
-3 22 -8 20 -61 -2 -63 -37 -142 -63 -142 -22 0 -60 85 -67 149 -5 51 -4 56
14 56 17 0 21 -9 26 -57z m289 40 c18 -16 23 -49 10 -69 -4 -6 -23 -19 -42
-29 -46 -23 -45 -22 -30 -40 18 -21 46 -19 63 6 19 26 30 9 17 -25 -5 -15 -20
-28 -35 -32 -82 -21 -133 99 -79 184 18 27 69 30 96 5z m2028 -98 c18 -22 8
-50 -19 -50 -28 0 -47 25 -38 49 8 20 40 21 57 1z"/>
<path d="M4430 4911 c-19 -36 -13 -47 25 -43 43 5 48 13 29 40 -19 27 -40 28
-54 3z"/>
<path d="M7645 4900 c-8 -26 7 -45 30 -36 21 8 16 50 -7 54 -10 2 -19 -5 -23
-18z"/>
<path d="M6446 4834 c-20 -19 -20 -28 -1 -44 19 -16 35 -4 35 25 0 31 -14 39
-34 19z"/>
<path d="M6845 4904 c-20 -21 -19 -34 3 -34 18 0 42 18 42 31 0 15 -30 17 -45
3z"/>
<path d="M7200 4890 c-8 -16 -8 -20 4 -20 25 0 46 12 46 26 0 21 -38 17 -50
-6z"/>
<path d="M5044 4826 c-15 -12 -17 -18 -8 -33 16 -25 38 -22 42 6 5 32 -10 44
-34 27z"/>
<path d="M5601 4891 c-16 -29 -13 -56 7 -81 34 -42 76 10 56 69 -12 33 -48 40
-63 12z"/>
<path d="M8235 4890 c-22 -25 -15 -35 20 -26 17 4 25 12 23 23 -5 25 -22 26
-43 3z"/>
<path d="M8445 4880 c-9 -28 -4 -31 24 -17 30 15 32 31 4 35 -15 2 -23 -3 -28
-18z"/>
<path d="M6916 4275 c-9 -24 -7 -78 3 -94 24 -38 62 28 45 78 -11 30 -39 39
-48 16z"/>
<path d="M7888 4272 c-22 -24 -30 -66 -18 -96 18 -48 33 -31 27 30 -5 46 -3
55 9 50 8 -3 14 1 14 9 0 22 -16 26 -32 7z"/>
<path d="M8651 4263 c-12 -24 2 -48 24 -40 10 4 15 15 13 29 -4 28 -24 34 -37
11z"/>
<path d="M5552 4271 c-19 -12 -18 -80 2 -99 35 -36 73 37 46 88 -11 21 -27 25
-48 11z"/>
<path d="M5990 4195 c-16 -19 -5 -47 17 -43 11 2 18 12 18 27 0 29 -17 37 -35
16z"/>
<path d="M6362 4268 c-12 -12 -17 -38 -7 -38 16 0 55 25 52 34 -5 16 -31 18
-45 4z"/>
<path d="M6710 4194 c-11 -12 -11 -18 2 -31 20 -20 38 -9 38 23 0 27 -21 32
-40 8z"/>
<path d="M7125 4265 c-3 -8 -7 -22 -10 -30 -6 -21 10 -61 29 -68 36 -14 64 71
34 101 -17 17 -48 15 -53 -3z"/>
<path d="M8096 4264 c-19 -19 -21 -34 -3 -34 22 0 51 26 43 38 -10 16 -22 15
-40 -4z"/>
<path d="M9447 4264 c-4 -4 -7 -18 -7 -31 0 -18 5 -24 18 -21 10 2 17 12 17
27 0 24 -15 37 -28 25z"/>
<path d="M4578 4247 c-7 -35 8 -68 27 -61 21 8 30 51 15 69 -18 22 -37 18 -42
-8z"/>
<path d="M4794 4185 c-8 -21 3 -45 20 -45 20 0 29 16 21 40 -7 23 -33 27 -41
5z"/>
<path d="M5321 3618 c-13 -40 -1 -92 22 -96 20 -4 30 29 25 84 -4 52 -32 59
-47 12z"/>
<path d="M4289 3634 c-17 -20 -18 -89 -2 -105 23 -23 43 -2 43 45 0 72 -14 92
-41 60z"/>
<path d="M4626 3635 c-3 -9 -3 -36 1 -60 4 -34 10 -45 23 -45 20 0 30 19 30
56 0 51 -39 86 -54 49z"/>
<path d="M5893 3653 c-17 -6 -17 -38 0 -52 15 -12 37 3 37 25 0 16 -22 32 -37
27z"/>
<path d="M6429 3629 c-6 -12 -8 -36 -5 -54 11 -57 61 -57 72 0 11 62 -40 104
-67 54z"/>
<path d="M7242 3571 c-19 -11 -11 -45 11 -49 13 -3 17 3 17 27 0 32 -6 37 -28
22z"/>
<path d="M7622 3638 c-15 -15 -16 -38 -1 -38 23 0 48 21 43 35 -7 18 -26 19
-42 3z"/>
<path d="M8166 3635 c-20 -21 -21 -78 -1 -95 35 -29 76 30 53 78 -16 32 -31
37 -52 17z"/>
<path d="M3872 3561 c-19 -11 -11 -45 11 -49 13 -3 17 3 17 27 0 32 -6 37 -28
22z"/>
<path d="M9011 3621 c-23 -43 -10 -91 25 -91 32 0 51 40 38 78 -12 34 -48 41
-63 13z"/>
<path d="M8170 2321 c0 -43 19 -68 38 -49 22 22 14 64 -13 76 -24 11 -25 11
-25 -27z"/>
<path d="M8260 2267 l0 -56 85 0 c50 0 83 4 80 10 -4 5 -17 9 -31 9 -13 0 -24
5 -24 10 0 6 -7 10 -16 10 -8 0 -13 4 -10 9 4 5 -3 7 -14 4 -23 -6 -26 6 -7
26 10 12 9 13 -7 7 -12 -4 -26 0 -37 10 -18 16 -19 15 -19 -39z"/>
<path d="M8662 2311 c-19 -11 -11 -45 11 -49 13 -3 17 3 17 27 0 32 -6 37 -28
22z"/>
<path d="M8435 2290 c3 -5 11 -10 16 -10 6 0 7 5 4 10 -3 6 -11 10 -16 10 -6
0 -7 -4 -4 -10z"/>
<path d="M5572 3008 c-14 -14 -16 -86 -3 -107 5 -8 16 -11 25 -8 12 5 16 21
16 67 0 61 -11 75 -38 48z"/>
<path d="M6502 2963 c3 -50 6 -58 23 -58 18 0 20 7 20 55 0 50 -2 55 -23 58
-22 3 -23 1 -20 -55z"/>
<path d="M10437 3013 c-11 -10 -8 -41 4 -49 16 -9 41 20 33 39 -6 17 -25 22
-37 10z"/>
<path d="M3586 2994 c-4 -9 -4 -19 -2 -21 9 -10 46 9 46 23 0 19 -36 18 -44
-2z"/>
<path d="M4116 3004 c-18 -17 -21 -34 -7 -34 20 0 41 13 41 25 0 22 -17 26
-34 9z"/>
<path d="M4316 2935 c-19 -19 -10 -45 15 -45 13 0 19 7 19 24 0 32 -14 40 -34
21z"/>
<path d="M5045 3004 c-36 -37 1 -127 39 -95 28 24 16 111 -15 111 -4 0 -15 -7
-24 -16z"/>
<path d="M5917 3013 c-11 -10 -8 -83 2 -83 16 0 41 30 41 49 0 28 -28 50 -43
34z"/>
<path d="M6295 3004 c-36 -37 1 -127 39 -95 28 24 16 111 -15 111 -4 0 -15 -7
-24 -16z"/>
<path d="M6852 3008 c-16 -16 -15 -38 1 -38 22 0 40 18 34 34 -8 19 -19 20
-35 4z"/>
<path d="M8126 3004 c-18 -17 -21 -34 -7 -34 20 0 41 13 41 25 0 22 -17 26
-34 9z"/>
<path d="M8676 3005 c-32 -33 -11 -111 29 -104 25 5 38 56 22 88 -15 31 -30
36 -51 16z"/>
<path d="M9479 2986 c-14 -31 1 -80 26 -85 23 -4 45 24 45 59 0 51 -52 69 -71
26z"/>
<path d="M2345 2936 c-11 -8 -16 -19 -12 -30 9 -22 41 -17 45 8 6 27 -11 38
-33 22z"/>
<path d="M3037 3003 c-14 -13 -7 -81 9 -94 33 -27 64 21 50 77 -5 17 -13 24
-30 24 -12 0 -26 -3 -29 -7z"/>
<path d="M4552 2387 c-31 -37 -26 -117 8 -117 15 0 20 10 25 44 10 67 -7 105
-33 73z"/>
<path d="M9710 2376 c0 -31 18 -43 36 -24 19 18 8 48 -17 48 -13 0 -19 -7 -19
-24z"/>
<path d="M3984 2385 c-8 -21 2 -45 20 -45 17 0 28 24 20 45 -4 8 -13 15 -20
15 -8 0 -17 -7 -20 -15z"/>
<path d="M4761 2387 c-15 -15 -14 -32 2 -46 16 -13 37 4 37 30 0 21 -24 31
-39 16z"/>
<path d="M6860 2360 c0 -25 4 -31 18 -28 11 2 17 12 17 28 0 16 -6 26 -17 28
-14 3 -18 -3 -18 -28z"/>
<path d="M9075 2380 c-8 -26 7 -45 30 -36 21 8 16 50 -7 54 -10 2 -19 -5 -23
-18z"/>
<path d="M9932 2388 c-16 -16 -15 -38 2 -38 18 0 39 27 31 40 -8 13 -18 13
-33 -2z"/>
<path d="M4331 2368 c-10 -27 0 -34 29 -18 24 13 22 33 -3 38 -11 2 -21 -6
-26 -20z"/>
<path d="M4972 2378 c-16 -16 -15 -38 1 -38 22 0 40 18 34 34 -8 19 -19 20
-35 4z"/>
<path d="M5476 2368 c-9 -12 -14 -24 -11 -26 9 -9 55 9 55 22 0 24 -29 26 -44
4z"/>
<path d="M6288 2355 c-17 -38 0 -80 32 -80 18 0 27 8 34 27 13 36 -6 78 -34
78 -12 0 -25 -10 -32 -25z"/>
<path d="M6630 2356 c-20 -53 19 -106 55 -76 18 15 20 71 3 88 -20 20 -48 14
-58 -12z"/>
<path d="M7203 2365 c-3 -9 -3 -18 0 -21 10 -10 47 7 47 22 0 19 -39 18 -47
-1z"/>
<path d="M7757 2303 c-15 -15 -7 -43 13 -43 15 0 20 7 20 25 0 24 -18 34 -33
18z"/>
<path d="M9507 2313 c-12 -11 -7 -41 7 -46 19 -7 26 1 26 30 0 22 -19 31 -33
16z"/>
<path d="M5023 1753 c-26 -26 -32 -93 -9 -112 23 -20 37 11 34 76 l-3 58 -22
-22z"/>
<path d="M8575 1751 c-8 -27 1 -41 26 -41 16 0 20 6 17 27 -4 34 -33 43 -43
14z"/>
<path d="M4574 1675 c-9 -21 3 -45 21 -45 8 0 15 3 15 8 0 4 3 17 6 30 5 18 2
22 -15 22 -12 0 -24 -7 -27 -15z"/>
<path d="M7789 1727 c-16 -34 1 -81 29 -85 27 -4 44 34 33 75 -10 38 -46 44
-62 10z"/>
<path d="M6080 1665 c-16 -19 -5 -47 17 -43 23 4 31 58 10 58 -8 0 -20 -7 -27
-15z"/>
<path d="M6690 1665 c-16 -19 -5 -47 17 -43 11 2 18 12 18 27 0 29 -17 37 -35
16z"/>
<path d="M7577 1743 c-10 -9 -8 -75 2 -91 4 -8 19 -12 32 -10 20 2 25 10 27
41 2 21 -2 45 -9 53 -12 15 -41 19 -52 7z"/>
<path d="M3580 1121 c-7 -17 -9 -42 -6 -56 14 -55 81 -8 74 52 -2 22 -9 29
-29 31 -21 2 -29 -3 -39 -27z"/>
<path d="M4376 1124 c-19 -19 -21 -34 -3 -34 22 0 51 26 43 38 -10 16 -22 15
-40 -4z"/>
<path d="M5266 1033 c-8 -19 17 -48 33 -39 6 4 11 18 11 32 0 28 -34 34 -44 7z"/>
<path d="M6220 1104 c-19 -21 -16 -72 4 -92 24 -24 50 -4 54 42 5 57 -29 86
-58 50z"/>
<path d="M7034 1106 c-3 -8 -4 -27 -2 -43 4 -36 27 -37 47 -1 13 22 13 29 2
42 -17 20 -40 21 -47 2z"/>
<path d="M7431 1101 c-16 -29 -13 -56 7 -81 34 -42 76 10 56 69 -12 33 -48 40
-63 12z"/>
<path d="M7871 1102 c-6 -11 -8 -22 -5 -25 9 -9 55 15 51 27 -6 19 -35 18 -46
-2z"/>
</g>
</svg>
