<?xml version="1.0" standalone="no"?>
<!DOCTYPE svg PUBLIC "-//W3C//DTD SVG 20010904//EN"
 "http://www.w3.org/TR/2001/REC-SVG-20010904/DTD/svg10.dtd">
<svg version="1.0" xmlns="http://www.w3.org/2000/svg"
 width="768.000000pt" height="413.000000pt" viewBox="0 0 768.000000 413.000000"
 preserveAspectRatio="xMidYMid meet">

<g transform="translate(0.000000,413.000000) scale(0.100000,-0.100000)"
fill="#000000" stroke="none">
<path d="M3698 4036 c-243 -85 -420 -339 -594 -850 -67 -195 -174 -562 -206
-706 -31 -143 -32 -376 0 -491 54 -200 172 -357 367 -489 82 -55 136 -84 220
-115 l61 -23 74 45 c158 96 292 224 346 330 28 55 29 64 29 188 0 153 -7 174
-104 302 -38 49 -64 94 -67 115 -2 18 -9 112 -13 208 -8 159 -13 186 -46 300
-84 282 -90 324 -60 425 23 80 27 86 65 113 40 27 82 28 172 5 65 -17 93 -14
71 8 -16 16 -80 28 -145 29 -32 0 -58 3 -58 8 1 4 38 72 84 152 98 169 116
185 211 184 107 0 232 -86 293 -202 52 -98 66 -169 66 -337 1 -163 -12 -235
-60 -333 -14 -29 -24 -56 -21 -59 3 -3 29 8 58 24 129 70 218 337 189 569 -27
220 -143 456 -269 549 -97 70 -110 73 -368 73 -214 0 -237 -2 -295 -22z m-33
-207 c10 -30 63 -88 107 -115 21 -13 38 -28 38 -33 0 -5 -13 -14 -30 -21 -28
-12 -86 -68 -123 -120 -16 -24 -18 -24 -30 -6 -43 66 -78 104 -115 124 -47 26
-52 37 -21 47 29 10 107 82 125 117 17 33 40 36 49 7z"/>
<path d="M4250 3423 c-61 -12 -68 -49 -7 -38 23 4 69 10 102 14 38 4 54 9 43
13 -25 10 -109 17 -138 11z"/>
<path d="M3812 3300 l-23 -19 37 -16 c33 -14 124 -22 112 -10 -3 3 -25 9 -49
13 -37 7 -44 12 -43 30 1 27 -4 27 -34 2z"/>
<path d="M4370 3295 c12 -15 4 -21 -70 -48 -8 -3 -3 -6 13 -6 15 -1 44 6 64
14 35 15 35 16 18 35 -21 23 -44 28 -25 5z"/>
<path d="M4284 2749 c-34 -37 -101 -70 -156 -76 -45 -4 -67 0 -132 26 -43 17
-81 29 -84 27 -8 -9 87 -153 131 -198 48 -49 152 -108 190 -108 30 0 33 8 42
115 4 44 13 113 21 154 7 41 12 76 10 78 -1 2 -11 -6 -22 -18z"/>
<path d="M4386 2412 c-2 -4 29 -25 69 -46 99 -52 165 -122 226 -237 l50 -94
-3 135 c-5 199 -27 225 -207 241 -121 11 -129 11 -135 1z"/>
<path d="M489 1078 c-75 -38 -204 -160 -268 -256 -93 -138 -151 -294 -151
-403 0 -51 5 -64 43 -120 30 -46 55 -70 89 -87 56 -29 69 -26 153 39 36 27 65
44 65 37 0 -7 -14 -56 -30 -108 -45 -141 -40 -156 36 -130 28 10 32 19 58 118
16 59 50 166 77 239 27 72 49 136 49 142 0 15 -37 23 -71 16 -23 -5 -46 -28
-99 -99 -99 -133 -207 -215 -248 -189 -26 16 -22 131 7 219 94 278 361 612
450 564 47 -25 22 -137 -54 -240 -19 -26 -35 -52 -35 -57 0 -11 62 -73 73 -73
17 0 89 129 109 193 27 90 17 129 -49 186 -60 54 -110 56 -204 9z"/>
<path d="M3998 1086 c-98 -40 -151 -77 -238 -165 -92 -92 -136 -166 -146 -245
-6 -41 -4 -46 37 -91 l44 -48 138 6 c158 7 159 6 107 -76 -52 -83 -173 -146
-325 -168 -41 -6 -75 -14 -75 -18 0 -3 18 -26 40 -50 40 -43 40 -44 93 -37
114 14 309 141 351 230 29 61 20 122 -27 174 -19 21 -28 22 -154 22 -157 0
-157 0 -92 101 83 130 223 245 351 288 72 25 91 26 107 8 16 -21 -37 -120
-104 -194 -30 -34 -55 -65 -55 -70 0 -4 16 -21 36 -37 l36 -28 30 28 c47 46
107 142 124 201 15 51 15 56 -4 91 -10 20 -38 52 -61 70 -37 27 -50 32 -99 32
-36 0 -78 -9 -114 -24z"/>
<path d="M1965 1015 c-48 -48 -121 -154 -170 -247 -23 -44 -36 -59 -58 -64
-28 -6 -117 3 -117 11 0 3 16 43 35 89 19 47 35 88 35 92 0 10 -52 -6 -88 -28
-21 -13 -44 -42 -64 -82 -39 -79 -55 -96 -89 -96 -15 0 -31 -4 -34 -10 -3 -5
2 -10 12 -10 43 -1 46 -13 23 -91 -48 -158 -81 -209 -171 -254 -59 -31 -111
-40 -139 -25 -38 20 -21 49 55 92 74 41 135 97 135 124 0 27 -56 74 -87 74
-43 0 -127 -45 -167 -90 -19 -22 -47 -62 -60 -89 -30 -57 -61 -82 -135 -107
-65 -21 -106 -12 -106 25 0 19 14 32 70 63 81 46 135 94 135 121 0 30 -54 77
-90 77 -71 0 -171 -76 -209 -160 -31 -67 -27 -103 13 -148 31 -33 39 -37 83
-36 35 1 70 12 131 43 l84 42 48 -45 c32 -30 58 -46 75 -46 40 0 126 34 191
75 38 25 60 33 62 25 2 -6 18 -28 35 -47 26 -30 35 -34 61 -29 17 3 57 24 88
46 64 45 78 49 78 20 0 -20 55 -90 71 -90 5 0 25 33 45 73 43 85 101 172 138
206 25 23 26 23 26 5 0 -11 -11 -58 -25 -104 -31 -103 -31 -125 -3 -144 37
-26 72 -19 142 29 63 44 91 51 80 20 -7 -18 12 -52 36 -65 22 -12 49 -1 137
58 l52 34 46 -48 45 -49 32 38 c18 20 38 37 45 37 7 0 27 -13 45 -29 63 -54
68 -55 141 -11 66 40 102 51 94 28 -6 -18 10 -45 32 -58 15 -8 35 1 102 45 46
30 89 55 95 55 6 0 14 -19 17 -42 6 -47 30 -71 61 -62 43 12 206 137 195 148
-3 3 -33 -15 -67 -40 -72 -53 -99 -54 -88 -1 4 17 10 53 13 80 5 41 3 47 -12
47 -10 0 -41 -20 -69 -44 -66 -56 -125 -96 -142 -96 -39 0 2 67 100 162 50 49
56 75 15 69 -41 -6 -103 -48 -199 -137 -135 -124 -170 -137 -219 -83 l-28 30
73 73 c77 75 88 98 54 116 -31 17 -88 -19 -159 -99 -58 -65 -91 -87 -91 -61 0
25 43 91 109 167 114 132 178 220 210 286 46 97 47 113 9 147 -18 17 -40 30
-50 30 -74 0 -281 -308 -352 -526 -15 -44 -35 -94 -46 -111 -33 -54 -140 -122
-140 -88 0 8 15 57 34 110 l34 95 -29 21 c-16 11 -34 19 -40 17 -6 -2 -23 -34
-39 -72 -16 -38 -37 -77 -46 -87 -26 -28 -120 -89 -138 -89 -23 0 -20 23 15
128 34 101 32 110 -21 132 -28 12 -35 9 -95 -30 -108 -70 -100 -36 22 101 125
140 213 277 213 333 0 28 -51 76 -81 76 -11 0 -40 -20 -64 -45z m95 -22 c-1
-57 -164 -313 -185 -291 -6 6 108 240 136 280 23 31 49 37 49 11z m705 -13 c9
-15 -47 -131 -109 -225 -58 -86 -98 -129 -115 -124 -21 7 110 256 171 324 32
37 43 42 53 25z m-1025 -320 c0 -5 -18 -56 -41 -114 -26 -69 -51 -117 -72
-138 -37 -36 -106 -88 -119 -88 -18 0 -7 75 27 178 37 116 55 149 89 162 29
12 116 12 116 0z m-837 -126 c3 -4 1 -16 -5 -28 -13 -26 -79 -96 -90 -96 -17
0 -7 48 17 80 34 46 61 61 78 44z m350 0 c3 -4 1 -16 -5 -28 -13 -26 -79 -96
-90 -96 -17 0 -7 48 17 80 34 46 61 61 78 44z"/>
<path d="M5599 1026 c-68 -46 -191 -223 -244 -353 -37 -87 -41 -93 -77 -93
-54 0 -97 -29 -222 -149 -163 -157 -188 -160 -138 -19 16 46 32 90 35 98 6 14
-33 53 -65 65 -8 3 -40 -18 -75 -50 -34 -30 -63 -55 -66 -55 -3 0 -8 16 -11
35 -7 37 -45 71 -70 62 -8 -3 -24 -32 -35 -64 -33 -88 -40 -100 -96 -143 -66
-51 -90 -53 -81 -8 29 159 17 176 -66 96 -31 -29 -74 -63 -96 -75 -35 -20 -41
-21 -52 -8 -10 12 -9 20 5 42 29 44 95 112 133 135 31 19 33 23 18 34 -24 17
-68 3 -134 -42 -132 -92 -205 -274 -108 -274 10 0 54 22 97 50 43 27 83 50 88
50 6 0 11 -13 11 -29 0 -92 54 -99 160 -22 54 39 70 39 70 2 0 -22 8 -34 32
-49 18 -11 35 -19 39 -16 3 2 30 43 58 91 58 99 115 172 127 161 4 -5 -4 -52
-19 -105 -24 -92 -25 -99 -9 -116 37 -41 50 -41 112 2 63 44 90 51 90 23 0
-10 5 -23 12 -30 25 -25 66 -12 143 43 76 55 95 60 95 26 0 -25 38 -71 68 -82
26 -10 51 -1 135 50 l37 23 11 -31 c20 -58 68 -50 176 30 29 22 56 39 61 39 5
0 8 -21 8 -46 -1 -34 4 -49 18 -60 28 -20 34 -19 116 31 65 39 75 42 78 26 4
-25 68 -85 81 -76 6 3 24 32 40 63 49 97 141 211 141 176 0 -4 -10 -47 -22
-96 -23 -93 -20 -119 16 -126 25 -5 37 8 96 107 50 86 94 140 105 129 3 -2 -6
-47 -20 -99 -30 -114 -29 -105 -5 -129 29 -29 56 -25 126 21 63 41 84 43 84
10 0 -24 20 -41 46 -41 13 0 59 25 103 55 44 30 83 55 85 55 3 0 6 -24 8 -52
3 -53 3 -53 38 -56 33 -3 60 10 167 78 20 13 26 10 77 -38 63 -60 62 -60 169
8 35 22 67 40 71 40 3 0 6 -12 6 -27 0 -34 8 -46 38 -62 21 -11 30 -8 78 21
62 37 155 117 137 118 -6 0 -31 -16 -54 -36 -37 -31 -78 -54 -95 -54 -10 0 -2
36 26 117 17 47 30 91 30 97 0 15 -57 49 -69 41 -5 -3 -17 -28 -26 -56 -21
-62 -60 -108 -136 -160 -57 -39 -92 -48 -104 -29 -10 16 16 166 33 193 10 14
54 69 98 121 135 159 232 316 219 356 -3 11 -17 28 -31 39 -21 17 -30 18 -57
9 -66 -23 -209 -194 -280 -335 -15 -28 -40 -99 -56 -156 -37 -132 -50 -157
-103 -196 -73 -54 -91 -40 -66 52 12 45 5 97 -13 97 -6 0 -22 -14 -36 -30 -28
-34 -144 -120 -162 -120 -21 0 -11 47 17 86 29 40 79 87 122 115 l24 16 -22
12 c-35 19 -102 -19 -197 -109 -108 -103 -194 -172 -206 -164 -13 8 -4 51 31
141 l28 73 -34 30 c-41 35 -43 35 -127 -40 l-58 -52 7 40 c6 38 4 42 -27 61
-38 24 -51 19 -119 -43 l-45 -41 -3 27 c-4 30 -44 68 -72 68 -12 0 -24 -18
-40 -62 -32 -88 -55 -122 -102 -158 -62 -45 -72 -41 -63 23 12 87 11 111 -5
114 -8 2 -53 -28 -99 -67 -47 -38 -93 -70 -103 -70 -48 0 12 106 96 169 48 37
57 55 30 65 -32 12 -109 -39 -221 -146 -109 -104 -145 -127 -179 -114 -14 5
-16 16 -11 59 11 89 35 141 104 223 137 164 243 326 243 370 0 19 -54 74 -72
74 -7 0 -29 -11 -49 -24z m57 -51 c8 -20 -34 -108 -100 -207 -55 -85 -82 -115
-92 -106 -13 13 97 244 141 296 29 35 43 40 51 17z m1839 -12 c-17 -73 -196
-335 -203 -300 -8 38 133 292 176 317 28 16 35 11 27 -17z m-2223 -511 c-21
-42 -94 -102 -123 -102 -12 0 -19 7 -19 20 0 22 66 101 120 144 l35 28 3 -27
c2 -14 -5 -43 -16 -63z"/>
<path d="M2269 748 l-21 -42 22 -18 c31 -25 45 -23 69 11 27 37 26 56 -1 75
-34 24 -46 20 -69 -26z"/>
<path d="M7562 777 c-6 -7 -16 -25 -21 -40 -9 -23 -7 -31 9 -47 28 -28 47 -25
70 13 27 43 25 54 -10 72 -35 18 -35 18 -48 2z"/>
</g>
</svg>
